<?xml version="1.0" encoding="utf-8"?>
<svg viewBox="90 75 300 300" xmlns="http://www.w3.org/2000/svg">
  <path id="path121815" style="font-style:normal;font-weight:400;font-size:72px;line-height:1;font-family:'Brandmark Dots 1 Color';font-variant-ligatures:normal;text-align:center;text-anchor:middle" d="M 100.165 300.906 C 107.293 304.146 115.717 301.122 119.173 293.994 L 132.781 265.482 L 205.357 265.482 C 210.325 265.482 214.645 262.89 217.237 259.002 C 222.205 251.658 218.317 245.394 215.941 240.426 L 177.493 159.21 C 175.117 154.242 169.933 151.002 164.533 151.002 C 158.917 151.002 153.949 154.242 151.573 159.21 L 93.253 281.682 C 90.013 288.81 93.037 297.45 100.165 300.906 Z M 164.533 198.522 L 184.837 240.858 L 144.445 240.858 L 164.533 198.522 Z M 222.637 273.474 C 214.861 273.474 208.381 279.954 208.381 287.946 C 208.381 295.722 214.861 302.202 222.637 302.202 C 230.629 302.202 237.109 295.722 237.109 287.946 C 237.109 279.954 230.629 273.474 222.637 273.474 Z" stroke-width="0" stroke-linejoin="miter" stroke-miterlimit="2" fill="#f3f3f3" stroke="#f3f3f3"/>
  <path id="path121817" style="font-style:normal;font-weight:400;font-size:72px;line-height:1;font-family:'Brandmark Dots 1 Color';font-variant-ligatures:normal;text-align:center;text-anchor:middle" d="M 237.646 229.642 C 237.646 273.49 273.286 309.13 317.134 309.13 C 335.926 309.13 357.526 302.434 371.782 292.282 C 374.59 290.338 376.75 288.394 378.046 285.802 C 379.558 282.562 379.558 279.538 379.558 275.65 L 379.558 241.738 C 379.558 233.962 373.294 227.482 365.302 227.482 C 357.31 227.482 351.046 233.962 351.046 241.738 L 351.046 271.546 C 341.542 276.946 328.366 280.402 317.134 280.402 C 289.054 280.402 266.374 257.722 266.374 229.642 C 266.374 201.562 289.054 178.882 317.134 178.882 C 330.742 178.882 341.326 183.418 350.398 187.954 C 357.31 191.626 365.95 192.49 370.27 186.442 C 374.806 179.962 374.374 171.322 368.326 166.354 C 351.91 152.962 331.606 150.154 317.134 150.154 C 273.286 150.154 237.646 185.578 237.646 229.642 Z M 308.062 241.738 C 308.062 249.73 314.542 256.21 322.534 256.21 C 330.31 256.21 336.79 249.73 336.79 241.738 C 336.79 233.962 330.31 227.482 322.534 227.482 C 314.542 227.482 308.062 233.962 308.062 241.738 Z" stroke-width="0" stroke-linejoin="miter" stroke-miterlimit="2" fill="#4c93c2" stroke="#4c93c2"/>
</svg>