<?xml version="1.0" standalone="no"?>
<!DOCTYPE svg PUBLIC "-//W3C//DTD SVG 20010904//EN"
 "http://www.w3.org/TR/2001/REC-SVG-20010904/DTD/svg10.dtd">
<svg version="1.0" xmlns="http://www.w3.org/2000/svg"
 width="180.000000pt" height="168.000000pt" viewBox="0 0 180.000000 168.000000"
 preserveAspectRatio="xMidYMid meet">

<g transform="translate(0.000000,168.000000) scale(0.100000,-0.100000)"
fill="#000000" stroke="none">
<path d="M0 840 l0 -840 900 0 900 0 0 840 0 840 -900 0 -900 0 0 -840z m1084
556 c-78 -34 -136 -141 -405 -748 l-153 -348 -128 0 -128 0 9 22 c5 13 67 156
139 318 277 631 299 674 365 724 52 40 75 45 207 45 113 0 122 -1 94 -13z
m159 -403 c31 -71 112 -255 181 -410 l124 -283 -126 0 -127 0 -117 263 c-65
144 -118 266 -118 272 0 15 115 285 121 285 4 0 31 -57 62 -127z"/>
</g>
</svg>
