<svg width="16" height="16" viewBox="0 0 16 16" fill="none" xmlns="http://www.w3.org/2000/svg">
<path d="M8.015 4.1165L5.3936 4.8428C5.075 6.659 3.72739 8.0978 2 8.5028L2.67049 11.0453C5.71189 10.2911 7.9745 7.48309 8.015 4.1165ZM11.2121 4.03249C11.2121 3.5645 11.2799 3.11059 11.4086 2.6846L8.9429 2C8.75685 2.66142 8.66347 3.34543 8.66539 4.03249C8.66539 6.67281 10.0403 8.978 12.0926 10.2422L12.797 7.532C11.822 6.6869 11.2121 5.43649 11.2121 4.03249ZM8.33329 9.89299C7.12945 9.89237 5.9469 10.2104 4.90579 10.8149L6.8297 12.7985C7.31102 12.6209 7.82028 12.5311 8.33329 12.5333C9.6203 12.5333 10.7786 13.0991 11.5913 14L13.4 12.1349C12.1265 10.745 10.325 9.89299 8.33329 9.89299Z" fill="white"/>
</svg>
