<?xml version="1.0" encoding="utf-8"?>
<svg version="1.1" id="Layer_5" xmlns="http://www.w3.org/2000/svg" xmlns:xlink="http://www.w3.org/1999/xlink" viewBox="0 0 260 260">
<path fill="none" d="M134.597,55.277c-30.487,0-56.789,17.881-69.016,43.723h138.03C191.385,73.158,165.083,55.277,134.597,55.277z"
	/>
<path fill="none" d="M58.277,131.597c0,42.149,34.169,76.318,76.319,76.318c42.149,0,76.318-34.169,76.318-76.318
	c0-1.544-0.06-3.075-0.15-4.597H58.428C58.337,128.522,58.277,130.052,58.277,131.597z"/>
<path fill="#3C00A2" d="M134.597,55.277c30.486,0,56.788,17.881,69.015,43.723h51.064C240.352,46.106,192.022,7.193,134.597,7.193
	S28.842,46.106,14.517,99h51.064C77.808,73.158,104.11,55.277,134.597,55.277z"/>
<path fill="#3C00A2" d="M210.915,131.597c0,42.149-34.169,76.318-76.318,76.318c-42.15,0-76.319-34.169-76.319-76.318
	c0-1.544,0.06-3.075,0.15-4.597H10.286c-0.056,1.526-0.093,3.057-0.093,4.597C10.193,200.303,65.891,256,134.597,256
	S259,200.303,259,131.597c0-1.54-0.038-3.07-0.094-4.597h-48.142C210.855,128.522,210.915,130.052,210.915,131.597z"/>
</svg>
