<svg width="265" height="60" viewBox="0 0 90 60" fill="none" xmlns="http://www.w3.org/2000/svg">
  <path fill="#fff" d="M61.7,43.2c0,0-1.1,1-3.9,2.6l0.1,0.1c0,0,2.1-0.8,4.3-2.2L61.7,43.2z"></path>
  <path fill="#fff" d="M62.6,44.4c0,0-1,1.1-3.8,2.7l0.1,0.1c0,0,2.1-0.8,4.2-2.2L62.6,44.4z"></path>
  <path fill="#fff" d="M61.3,8.3l-7.9,0l-1.2,1.5l-7.9,0l-8,0l-1.2-1.5l-7.9,0l1.2,1.5c0,0,1.1,1.3,1.1,4.4v21c0,0,0,5.6,5.9,5.9 l4.4,0c0,0,0,0,0,0c0.2,0,2.4,0,4.4,2.1c2-2.1,4.2-2.1,4.4-2.1c0,0,0,0,0,0l4.4,0c5.9-0.4,5.9-5.9,5.9-5.9v-21 c-0.1-3.3,1.3-4.8,1.3-4.8L61.3,8.3z M34.7,9L44.2,21l9.6-12.1l5.9,0L47.2,24.7l10.3,13c-1.1,2.4-3.8,2.6-3.8,2.6l-9.5-11.8 l-9.5,11.8c0,0-2.7-0.3-3.8-2.6l10.3-13L28.8,9H34.7L34.7,9z"></path><path fill="#fff" d="M26.6,43.2c0,0,1.1,1,3.9,2.6L30.4,46c0,0-2.1-0.8-4.3-2.2L26.6,43.2z"></path><path fill="#fff" d="M25.7,44.4c0,0,1,1.1,3.8,2.7l-0.1,0.1c0,0-2.1-0.8-4.2-2.2L25.7,44.4z"></path><path fill="#fff" d="M44.2,53.2c-7.5,0-14.2-2.5-19.9-7.1l0.5-0.6c5.6,4.5,12.1,6.9,19.5,6.9h0c7.3,0,13.9-2.5,19.5-6.9l0.5,0.6 C58.5,50.7,51.7,53.2,44.2,53.2L44.2,53.2z"></path><path fill="#fff" d="M14.8,23.2c0,0-1.7-1.2-2.8-1.8c-1.1-0.6-3.1-1.9-3.1-1.9s1.6,0.9,2.4,0.7c0.5-0.1-0.4-1.3-0.9-2.2L14.8,23.2z"></path><path fill="#fff" d="M15.5,33c0,0-4.2,0.7-7.4,6c0,0,1.3-4.3-2.1-6.7c0,0,2,1.5,3.1,1.4c0.5-0.1,0.4-0.7-0.2-1.4 c0,0,1.4,1.3,3.7,1.1C14.4,33.1,15.5,33,15.5,33z"></path><path fill="#fff" d="M21.3,39.6c0.5-2.1-1-3.5-1.8-3.6c-3.9-0.7-4.7,5.3-4.7,5.3c-0.9-3.2-2.2-2.3-2.2-2.3c-1.9,0.9-2.2,5.3-2.2,5.3 c0-3.2-1-2.8-1-2.8c-1.9,0.6-3.2,4.3-3.2,4.3l-0.1,0c1.4-4,2.4-5.4,2.4-5.4c4.5-7.2,9.6-6.3,11.2-5.6c1.6,0.7,2.5,1.3,4.3,3.9 c1.1,1.6,3.1,3.1,3.7,3.6c0.6,0.5,1.2,1,3.9,2.6l-0.1,0.1c0,0-2.1-0.8-4.3-2.2c-2.4-1.5-4.3-3.7-5.2-3.4 C21.6,39.3,21.3,39.6,21.3,39.6z"></path><path class="SiteLogo_pink__2b9e5" d="M19.2,9l0.7,0.7L20.6,9l0.8,0.7l0.7-0.7l2.2,1.9c0,0-0.6,0.3-0.8,0.8c-0.3,0.5-1,2.6-1,2.6h-0.3 c0,0,0.5-1.8,0.3-2.5h-0.1c0,0-1.1,1.6-1.3,2.5l-0.2,0c0,0,0.2-1.9-0.1-2.7h-0.1c0,0-0.7,1.6-0.8,2.7h-0.2c0,0-0.2-2.1-0.5-2.9H19 c-0.3,0.8-0.5,2.9-0.5,2.9h-0.2c-0.1-1.1-0.8-2.7-0.8-2.7h-0.1c-0.3,0.8-0.1,2.7-0.1,2.7h-0.2c-0.2-0.9-1.3-2.5-1.3-2.5h-0.1 c-0.2,0.7,0.3,2.5,0.3,2.5h-0.3c0,0-0.7-2-1-2.6c-0.3-0.5-0.8-0.8-0.8-0.8L16.2,9l0.7,0.7L17.7,9l0.7,0.7L19.2,9z"></path><path fill="#fff" d="M18.8,20.5v0.2c0.1,7.5,3.3,13.8,3.3,13.8s-1.8-2.7-2.8-4c-0.7-1-1.7-1.9-1.7-1.9C16,27.3,14.7,30,14.7,30 c1.2-2.5-0.2-3.5-0.2-3.5c-2-1.5-3.5,1.1-3.5,1.1c1.5-3.7-0.4-4.7-0.4-4.7c-2.1-1.2-4.9-0.6-5.5-0.4c0.4-0.1,1.7-0.5,2.2-0.8 c0.6-0.4-0.1-0.9-0.1-0.9c-1.6-1-2.8-1.4-2.8-1.4l0-0.1c5,1.2,9,3.8,11.1,5.3c2.2,1.5,2.5,0.3,2.5,0.3c0.3-1.7-1.7-3.2-1.7-3.2 s0.4,0.1,0.5,0.1c0.7,0,1.2-0.6,1.2-1.3l0-1c-0.4-0.1-0.7-0.1-1.1-0.3c0,0-3.1-1.2-3.3-4.5h0.3c0,0,0.1,2,1.5,3c0-0.2,0-0.6,0-0.6 c-0.4-0.5-0.7-1.2-0.6-2.4c0,0,0.3,0,0.2,0c0,0.3-0.1,1.2,0.4,1.9c0.1-0.4,0.2-0.6,0.5-0.9c0.3-0.3,0.1-1,0-1.1h0.2 c0,0,0.6,0.4,1,1.4c0.1,0.3,0.1,0.5,0.1,0.8l0.4-2.2l0.7,2.3l0.8-2.4l0.7,2.4l0.8-2.3l0.4,2.2c0-0.3,0-0.4,0.1-0.8 c0.4-1,1-1.4,1-1.4h0.2c-0.1,0.1-0.3,0.7,0,1.1c0.2,0.2,0.4,0.5,0.5,0.9c0.6-0.7,0.5-1.6,0.5-1.9h0.2c0.1,1.3-0.3,1.9-0.7,2.4 c0,0,0,0.5,0,0.6c1.4-1,1.6-3,1.6-3h0.2c-0.3,3.4-3.1,4.4-3.3,4.5c-0.4,0.2-1,0.3-1,0.3v1c0,1.9,1.2,3,2.4,3c0.5,0,0.9-0.3,0.9-0.3 c-3.5,3.4-2.2,6.7-2.2,6.7c-1.4-2.6-1.8-7.2-1.8-9.2v-1.2h-0.7L18.8,20.5z"></path><path fill="#fff" d="M44.2,46.5c-4.5,0-9.3-1.3-12.7-3.5c-1.6-1.1-3.7-3.9-3.6-6.3c0,0-1,0.7-1.8-0.3c-0.8-0.9-0.2-3.1,0.5-4.3 c0,0-1,0.3-1.7-0.3c-0.7-0.6-0.5-2.3,0.7-3.3c1-0.8,1.8-0.8,2.4-1c0,0-3.4-0.2-2.2-2.9c0.2-0.5,0.6-1.3,0.8-1.8c0.9-2,0-4.2,0-4.2 s0.3,2.2-2.3,5.3c-1.7,2.1-2.5,4.5-2,7.6c0.5,3,1.6,6.4,5.2,9.4c1.3,1.1,1.4,1.1,3.7,2.8c3.8,2.2,8.3,3.5,13,3.5"></path><path fill="#fff" d="M73.6,23.2c0,0,1.7-1.2,2.8-1.8c1.1-0.6,3.1-1.9,3.1-1.9s-1.6,0.9-2.4,0.7c-0.5-0.1,0.4-1.3,0.9-2.2L73.6,23.2z "></path><path fill="#fff" d="M72.9,33c0,0,4.2,0.7,7.4,6c0,0-1.3-4.3,2.1-6.7c0,0-2,1.5-3.1,1.4c-0.5-0.1-0.4-0.7,0.2-1.4 c0,0-1.4,1.3-3.7,1.1C74,33.1,72.9,33,72.9,33z"></path><path fill="#fff" d="M67.1,39.6c-0.5-2.1,1-3.5,1.8-3.6c3.9-0.7,4.7,5.3,4.7,5.3c0.9-3.2,2.2-2.3,2.2-2.3c1.9,0.9,2.2,5.3,2.2,5.3 c0-3.2,1-2.8,1-2.8c1.9,0.6,3.2,4.3,3.2,4.3l0.1,0c-1.4-4-2.4-5.4-2.4-5.4c-4.5-7.2-9.6-6.3-11.2-5.6c-1.6,0.7-2.5,1.3-4.2,3.9 c-1.1,1.6-3.1,3.1-3.7,3.6c-0.6,0.5-1.2,1-3.9,2.6l0.1,0.1c0,0,2.1-0.8,4.3-2.2c2.4-1.5,4.3-3.7,5.2-3.4 C66.8,39.3,67.1,39.6,67.1,39.6z"></path><path class="SiteLogo_pink__2b9e5" d="M69.2,9l-0.7,0.7L67.8,9L67,9.7l-0.7-0.7l-2.2,1.9c0,0,0.6,0.3,0.8,0.8c0.3,0.5,1,2.6,1,2.6h0.3 c0,0-0.5-1.8-0.3-2.5H66c0,0,1.1,1.6,1.3,2.5h0.2c0,0-0.2-1.9,0.1-2.7h0.1c0,0,0.7,1.6,0.8,2.7l0.2,0c0,0,0.2-2.1,0.5-2.9l0.2,0 c0.3,0.8,0.5,2.9,0.5,2.9l0.2,0c0.1-1.1,0.8-2.7,0.8-2.7H71c0.3,0.8,0.1,2.7,0.1,2.7h0.2c0.2-0.9,1.3-2.5,1.3-2.5h0.1 c0.2,0.7-0.3,2.5-0.3,2.5h0.3c0,0,0.7-2,1-2.6c0.3-0.5,0.8-0.8,0.8-0.8L72.2,9l-0.7,0.7L70.7,9L70,9.7L69.2,9z"></path><path fill="#fff" d="M69.6,20.5v0.2c-0.1,7.5-3.3,13.8-3.3,13.8s1.8-2.7,2.8-4c0.7-1,1.8-1.9,1.8-1.9c1.6-1.3,2.8,1.4,2.8,1.4 c-1.1-2.5,0.2-3.5,0.2-3.5c2-1.5,3.5,1.1,3.5,1.1C75.9,24,77.8,23,77.8,23c2.1-1.2,4.9-0.6,5.5-0.4c-0.4-0.1-1.7-0.5-2.2-0.8 c-0.6-0.4,0.1-0.9,0.1-0.9c1.6-1,2.8-1.4,2.8-1.4l0-0.1c-5,1.2-9,3.8-11.1,5.3c-2.2,1.5-2.4,0.3-2.4,0.3c-0.3-1.7,1.7-3.2,1.7-3.2 s-0.4,0.1-0.5,0.1c-0.7,0-1.2-0.6-1.2-1.3"></path><path fill="#fff" d="M70.4,20.5l0-1c0.4-0.1,0.7-0.1,1.1-0.3c0,0,3.1-1.2,3.3-4.5h-0.3c0,0-0.1,2-1.5,3c0-0.2,0.1-0.6,0-0.6 c0.4-0.5,0.7-1.2,0.6-2.4h-0.2c0,0.3,0.1,1.2-0.4,1.9c-0.1-0.4-0.2-0.6-0.5-0.9c-0.3-0.3-0.1-0.9,0-1.1h-0.2c0,0-0.6,0.4-1,1.4 c-0.1,0.3-0.1,0.5-0.1,0.8l-0.4-2.2L70,17l-0.8-2.4L68.5,17l-0.8-2.3l-0.4,2.2c0-0.3,0-0.4-0.1-0.8c-0.4-1-1-1.4-1-1.4H66 c0.1,0.1,0.3,0.7,0,1c-0.2,0.2-0.4,0.5-0.5,0.9c-0.6-0.7-0.5-1.6-0.5-1.9h-0.2c-0.1,1.3,0.3,1.9,0.7,2.4c0,0,0,0.5,0,0.6 c-1.4-1-1.6-3-1.6-3h-0.2c0.3,3.4,3.1,4.4,3.3,4.5c0.4,0.2,1,0.3,1,0.3v1c0,1.9-1.2,3-2.4,3c-0.5,0-0.9-0.3-0.9-0.3 c3.5,3.4,2.2,6.7,2.2,6.7c1.4-2.6,1.8-7.2,1.8-9.2v-1.2h0.7v1"></path><path fill="#fff" d="M44.2,47.3c4.7,0,9.3-1.3,13.1-3.5c2.4-1.7,2.4-1.7,3.7-2.8c3.6-3,4.6-6.4,5.2-9.4c0.5-3-0.3-5.5-2-7.6 c-2.7-3.1-2.3-5.3-2.3-5.3s-0.9,2.2,0,4.2c0.2,0.5,0.6,1.3,0.8,1.8c1.2,2.7-2.2,2.9-2.2,2.9c0.6,0.2,1.4,0.1,2.4,1 c1.2,1,1.5,2.7,0.7,3.3c-0.8,0.6-1.7,0.3-1.7,0.3c0.6,1.2,1.3,3.3,0.5,4.3c-0.8,0.9-1.8,0.3-1.8,0.3c0.1,2.4-2,5.2-3.6,6.3 c-3.4,2.2-8.3,3.5-12.7,3.5"></path><path fill="#fff" d="M31.6,48.7l-0.2-0.5c0,0-0.1,0-0.1,0c-0.7-0.3-0.8-0.9-0.5-1.6c0.3-0.6,0.8-0.9,1.5-0.6 c0.6,0.3,0.8,0.9,0.5,1.6c-0.2,0.4-0.5,0.7-1,0.7l0.3,0.7L31.6,48.7z M31.4,47.8c0.4,0.2,0.8-0.1,0.9-0.5c0.2-0.4,0.2-0.8-0.2-1 c-0.4-0.2-0.8,0.1-0.9,0.5C31,47.1,31,47.6,31.4,47.8z"></path><path fill="#fff" d="M33.5,46.5l0.4,0.2l-0.5,1.3c-0.1,0.4-0.1,0.7,0.2,0.8c0.3,0.1,0.5-0.1,0.7-0.4l0.5-1.3l0.4,0.2l-0.5,1.4 c-0.2,0.6-0.6,0.7-1.2,0.5c-0.5-0.2-0.8-0.6-0.6-1.1L33.5,46.5z"></path><path fill="#fff" d="M36.1,47.5l0.5,0.1l0.2,2.5l-0.5-0.1l0-0.6l-0.9-0.3l-0.3,0.5l-0.5-0.1L36.1,47.5z M36.3,48L36.3,48l-0.6,0.8 l0.6,0.2L36.3,48z"></path><path fill="#fff" d="M37.6,47.9l1.3,0.3l-0.1,0.4L38,48.3l-0.1,0.6l0.8,0.2l-0.1,0.4l-0.8-0.2l-0.1,0.6l0.9,0.2l-0.1,0.4l-1.3-0.3 L37.6,47.9z"></path><path fill="#fff" d="M39.2,48.2l0.5,0.1c0.5,0.1,1.1,0.1,1,0.8c0,0.3-0.2,0.5-0.5,0.5v0c0.1,0,0.2,0.2,0.2,0.3l0.2,0.9l-0.5-0.1 l-0.2-0.8c0-0.2-0.1-0.3-0.3-0.3l-0.1,0l-0.1,0.9l-0.5-0.1L39.2,48.2z M39.5,49.2l0.1,0c0.2,0,0.5,0,0.5-0.2c0-0.3-0.2-0.3-0.4-0.4 l-0.1,0L39.5,49.2z"></path><path fill="#fff" d="M41.1,48.4l1.3,0.1l0,0.4l-0.9-0.1l0,0.6l0.8,0.1l0,0.4l-0.8-0.1l0,0.6l0.9,0.1l0,0.4l-1.3-0.1L41.1,48.4z"></path><path fill="#fff" d="M42.7,48.6l0.5,0c0.5,0,1.1,0,1.1,0.6c0,0.3-0.2,0.5-0.5,0.5v0c0.1,0,0.2,0.1,0.2,0.2l0.3,0.9l-0.5,0l-0.3-0.7 c-0.1-0.2-0.1-0.2-0.3-0.2l-0.1,0l0,1l-0.5,0L42.7,48.6z M43.2,49.6l0.1,0c0.2,0,0.5,0,0.5-0.3c0-0.3-0.2-0.3-0.5-0.3l-0.1,0 L43.2,49.6z"></path><path fill="#fff" d="M44.6,48.6l1.3-0.1l0,0.4l-0.9,0l0,0.6l0.8,0l0,0.4l-0.8,0l0,0.6l0.9,0l0,0.4l-1.3,0.1L44.6,48.6z"></path><path fill="#fff" d="M46.9,48.5l0.5-0.1l0.8,1.7h0l0.4-1.9l0.4-0.1l-0.5,2.4L48,50.7L46.9,48.5z"></path><path fill="#fff" d="M50.7,47.9l0.5-0.1c0.5-0.1,1-0.3,1.2,0.3c0.1,0.3,0,0.5-0.3,0.6v0c0.1,0,0.2,0.1,0.3,0.2l0.6,0.8l-0.5,0.1 L52,49.2C51.9,49,51.8,49,51.7,49l-0.1,0l0.2,0.9l-0.4,0.1L50.7,47.9z M51.4,48.7l0.1,0c0.2-0.1,0.5-0.2,0.4-0.4 c-0.1-0.3-0.3-0.2-0.5-0.2l-0.1,0L51.4,48.7z"></path><path fill="#fff" d="M52.5,47.4l0.4-0.1l0.4,1.3c0.1,0.4,0.3,0.6,0.7,0.5c0.3-0.1,0.4-0.4,0.2-0.8l-0.4-1.3l0.4-0.1l0.5,1.4 c0.2,0.6-0.1,0.9-0.6,1.1c-0.6,0.2-1,0.1-1.2-0.5L52.5,47.4z"></path><path fill="#fff" d="M54.6,46.7l0.7-0.3l1.2,1.4l0,0l-0.2-1.8l0.7-0.3l0.9,2.1l-0.4,0.2l-0.8-1.7h0l0.2,2l-0.4,0.2l-1.3-1.5l0,0 l0.8,1.7l-0.4,0.2L54.6,46.7z"></path></svg>
